<svg width="80" height="60" xmlns="http://www.w3.org/2000/svg" xmlns:xlink="http://www.w3.org/1999/xlink"><svg x="60" width="20" height="20" xmlns="http://www.w3.org/2000/svg"><path d="M17.6 7.6h-5.2V2.4c0-1-.6-2-1.6-2.3-1.6-.5-3.2.7-3.2 2.3v5.3H2.4c-1 0-2 .6-2.3 1.6-.6 1.6.7 3.2 2.2 3.2h5.3v5.2c0 1 .6 2 1.6 2.3 1.6.6 3.2-.7 3.2-2.2v-5.3h5.3c1.6 0 2.8-1.6 2.2-3.2-.4-1.1-1.3-1.7-2.3-1.7z" fill="#fc3"/></svg><svg width="60" height="60" xmlns="http://www.w3.org/2000/svg"><path d="M42.5 22h-25a1 1 0 1 0 0 2h25a1 1 0 1 0 0-2zm-25-6h10a1 1 0 1 0 0-2h-10a1 1 0 1 0 0 2zm25 14h-25a1 1 0 1 0 0 2h25a1 1 0 1 0 0-2zm0 8h-25a1 1 0 1 0 0 2h25a1 1 0 1 0 0-2zm0 8h-25a1 1 0 1 0 0 2h25a1 1 0 1 0 0-2z"/><path d="M38.914 0H6.5v60h47V14.586L38.914 0zm.586 3.414L50.086 14H39.5V3.414zM8.5 58V2h29v14h14v42h-43z"/></svg><svg x="60" y="20" width="20" height="4.8" xmlns="http://www.w3.org/2000/svg"><path d="M19.9 1.6C19.6.6 18.6 0 17.6 0H2.4C1.4 0 .4.6.1 1.6c-.6 1.6.7 3.2 2.2 3.2h15.4c1.5 0 2.7-1.6 2.2-3.2z" fill="#fc3"/></svg></svg>