<?xml version="1.0" encoding="utf-8"?><svg width="80" height="60" viewBox="0 0 80 60" xmlns="http://www.w3.org/2000/svg" xmlns:xlink="http://www.w3.org/1999/xlink"><svg version="1.1" id="add" x="60" viewBox="0 0 20 20" xml:space="preserve" width="20" height="20" xmlns="http://www.w3.org/2000/svg"><style>.ast0{fill:#fc3}</style><path class="ast0" d="M17.6 7.6h-5.2V2.4c0-1-.6-2-1.6-2.3-1.6-.5-3.2.7-3.2 2.3v5.3H2.4c-1 0-2 .6-2.3 1.6-.6 1.6.7 3.2 2.2 3.2h5.3v5.2c0 1 .6 2 1.6 2.3 1.6.6 3.2-.7 3.2-2.2v-5.3h5.3c1.6 0 2.8-1.6 2.2-3.2-.4-1.1-1.3-1.7-2.3-1.7z"/></svg><svg viewBox="0 0 60 60" width="60" height="60" id="document" xmlns="http://www.w3.org/2000/svg"><path d="M42.5 22h-25a1 1 0 1 0 0 2h25a1 1 0 1 0 0-2zM17.5 16h10a1 1 0 1 0 0-2h-10a1 1 0 1 0 0 2zM42.5 30h-25a1 1 0 1 0 0 2h25a1 1 0 1 0 0-2zM42.5 38h-25a1 1 0 1 0 0 2h25a1 1 0 1 0 0-2zM42.5 46h-25a1 1 0 1 0 0 2h25a1 1 0 1 0 0-2z"/><path d="M38.914 0H6.5v60h47V14.586L38.914 0zm.586 3.414L50.086 14H39.5V3.414zM8.5 58V2h29v14h14v42h-43z"/></svg><svg version="1.1" id="minus" x="60" y="20" viewBox="0 0 20 4.8" xml:space="preserve" width="20" height="4.8" xmlns="http://www.w3.org/2000/svg"><style>.cst0{fill:#fc3}</style><path class="cst0" d="M19.9 1.6C19.6.6 18.6 0 17.6 0H2.4C1.4 0 .4.6.1 1.6c-.6 1.6.7 3.2 2.2 3.2H17.7c1.5 0 2.7-1.6 2.2-3.2z"/></svg></svg>