<?xml version="1.0" encoding="utf-8"?>
<!-- Generator: Adobe Illustrator 21.0.0, SVG Export Plug-In . SVG Version: 6.00 Build 0)  -->
<svg version="1.1" id="Layer_1" xmlns="http://www.w3.org/2000/svg" xmlns:xlink="http://www.w3.org/1999/xlink" x="0px" y="0px"
	 viewBox="0 0 20 20" style="enable-background:new 0 0 20 20;" xml:space="preserve">
<style type="text/css">
	.st0{fill:#66CCCC;}
</style>
<g>
	<path class="st0" d="M17.6,7.6h-5.2V2.4c0-1-0.6-2-1.6-2.3C9.2-0.4,7.6,0.8,7.6,2.4v5.3H2.4c-1,0-2,0.6-2.3,1.6
		c-0.6,1.6,0.7,3.2,2.2,3.2h5.3v5.2c0,1,0.6,2,1.6,2.3c1.6,0.6,3.2-0.7,3.2-2.2v-5.3h5.3c1.6,0,2.8-1.6,2.2-3.2
		C19.5,8.2,18.6,7.6,17.6,7.6z"/>
</g>
</svg>
